Patient4_TMGait_0pt5_01_left_23_GRF.mot
version=1
nRows=78
nColumns=19
inDegrees=no
endheader
time	F1x	F1y	F1z	M1x	M1y	M1z	F2x	F2y	F2z	M2x	M2y	M2z	EC1x	EC1y	EC1z	EC2x	EC2y	EC2z
30.81	-19.7128	-0.41788	0.18387	-0.7082	-4.078	5.3551	-29.4653	725.029	-56.5925	275.9392	62.9063	713.2375	-0.0592	0.0182	-0.0073	-0.0462	0.0165	0.9585
30.8228	-13.3722	0.19181	0.084766	-0.61813	-2.8096	4.0989	-27.7189	721.7927	-55.9786	275.2586	62.0738	705.8452	-0.0592	0.0182	-0.0073	-0.0462	0.0165	0.9585
30.8356	-8.0281	0.68848	0.03577	-0.55485	-1.7701	3.0307	-25.3775	719.7995	-55.0221	275.0331	60.5939	699.0586	-0.0592	0.0182	-0.0073	-0.0462	0.0165	0.9585
30.8484	-3.9634	1.0504	0.022178	-0.51804	-0.99948	2.2034	-22.5356	719.8143	-53.7619	275.5325	58.5258	693.7466	-0.0592	0.0182	-0.0073	-0.0462	0.0165	0.9585
30.8611	-1.172	1.3034	0.032332	-0.50725	-0.48465	1.6475	-19.3366	722.3046	-52.3217	276.9338	56.0478	690.4677	-0.0592	0.0182	-0.0073	-0.0462	0.0165	0.9585
30.8739	0.53682	1.4688	0.054411	-0.51477	-0.17811	1.3272	-15.88	727.3296	-50.8377	279.2708	53.3452	689.3335	-0.0592	0.0182	-0.0073	-0.0462	0.0165	0.9585
30.8867	1.4065	1.558	0.08348	-0.5284	-0.028178	1.1692	-12.241	734.5594	-49.4399	282.429	50.5886	690.0872	-0.0592	0.0182	-0.0073	-0.0462	0.0165	0.9585
30.8995	1.6783	1.5796	0.10975	-0.5371	0.016452	1.1107	-8.4415	743.3112	-48.2158	286.1603	47.8872	692.1269	-0.0592	0.0182	-0.0073	-0.0462	0.0165	0.9585
30.9123	1.5812	1.5104	0.14005	-0.52233	-0.015159	1.0498	-4.5038	752.6837	-47.2182	290.1281	45.3075	694.6539	-0.0592	0.0182	-0.0073	-0.0462	0.0165	0.9585
30.9251	1.2723	1.3235	0.16615	-0.46523	-0.093173	0.91415	-0.45826	761.6579	-46.4706	293.9446	42.8835	696.7786	-0.0592	0.0182	-0.0073	-0.0462	0.0165	0.9585
30.9379	0.8807	0.9634	0.19046	-0.34041	-0.19506	0.60655	3.6142	769.2212	-45.9633	297.2179	40.6331	697.6587	-0.0592	0.0182	-0.0073	-0.0462	0.0165	0.9585
30.9506	0.47887	0.37209	0.2064	-0.12364	-0.29805	0.058412	7.5754	774.543	-45.6602	299.6171	38.5762	696.6521	-0.0592	0.0182	-0.0073	-0.0462	0.0165	0.9585
30.9634	0.1416	-0.51461	0.21606	0.20679	-0.38058	-0.81418	11.2715	777.1001	-45.4957	300.9289	36.7234	693.399	-0.0592	0.0182	-0.0073	-0.0462	0.0165	0.9585
30.9762	-0.079273	-1.7141	0.21234	0.65705	-0.41567	-2.0295	14.5247	776.7516	-45.4204	301.081	35.1053	687.901	-0.0592	0.0182	-0.0073	-0.0462	0.0165	0.9585
30.989	-0.10616	-3.1916	0.18263	1.2132	-0.36049	-3.5533	17.227	773.728	-45.4141	300.1435	33.7511	680.4611	-0.0592	0.0182	-0.0073	-0.0462	0.0165	0.9585
31.0018	0.15584	-4.8028	0.11052	1.8203	-0.16267	-5.2284	19.2907	768.6618	-45.4912	298.3379	32.7052	671.7252	-0.0592	0.0182	-0.0073	-0.0462	0.0165	0.9585
31.0146	0.80857	-6.2352	-0.023771	2.3594	0.23649	-6.7302	20.722	762.4406	-45.6839	295.9916	31.9967	662.4991	-0.0592	0.0182	-0.0073	-0.0462	0.0165	0.9585
31.0274	1.9703	-6.9667	-0.24724	2.6317	0.9074	-7.524	21.5836	756.0275	-46.0265	293.4695	31.6326	653.6267	-0.0592	0.0182	-0.0073	-0.0462	0.0165	0.9585
31.0401	3.7392	-6.1941	-0.59213	2.3366	1.9172	-6.7652	22.0549	750.2002	-46.5355	291.0793	31.5604	645.7188	-0.0592	0.0182	-0.0073	-0.0462	0.0165	0.9585
31.0529	6.1575	-2.8219	-1.0764	1.0663	3.2995	-3.3071	22.3845	745.4224	-47.2013	289.0158	31.6771	639.0708	-0.0592	0.0182	-0.0073	-0.0462	0.0165	0.9585
31.0657	9.1212	4.5109	-1.7024	-1.6834	5.0196	4.2907	22.8042	741.7374	-47.9869	287.315	31.8644	633.621	-0.0592	0.0182	-0.0073	-0.0462	0.0165	0.9585
31.0785	12.3217	17.3068	-2.4229	-6.4643	6.9127	17.6114	23.4912	738.699	-48.8279	285.8278	32.0071	628.8993	-0.0592	0.0182	-0.0073	-0.0462	0.0165	0.9585
31.0913	15.1215	36.9342	-3.1318	-13.7706	8.6286	38.111	24.4889	735.4267	-49.6121	284.2361	32.0007	624.1214	-0.0592	0.0182	-0.0073	-0.0462	0.0165	0.9585
31.1041	16.4866	64.169	-3.6303	-23.8779	9.5784	66.6427	25.7578	730.6679	-50.1793	282.0826	31.7413	618.2102	-0.0592	0.0182	-0.0073	-0.0462	0.0165	0.9585
31.1169	15.2317	98.8027	-3.6366	-36.6959	9.0385	103.0561	27.1691	722.9908	-50.3431	278.8398	31.1371	609.9911	-0.0592	0.0182	-0.0073	-0.0462	0.0165	0.9585
31.1296	10.8608	139.5131	-2.7971	-51.7094	6.4608	146.0076	28.601	710.9506	-49.9129	273.9783	30.0926	598.2605	-0.0592	0.0182	-0.0073	-0.0462	0.0165	0.9585
31.1424	4.2103	183.6058	-0.6527	-67.8786	1.6727	192.6257	29.9211	693.3212	-48.7395	267.0471	28.543	582.0142	-0.0592	0.0182	-0.0073	-0.0462	0.0165	0.9585
31.1552	-3.2342	226.8033	3.1939	-83.6067	-5.1675	238.1889	31.0358	669.2013	-46.7487	257.7151	26.4718	560.5101	-0.0592	0.0182	-0.0073	-0.0462	0.0165	0.9585
31.168	-10.1149	265.5192	8.4512	-97.5955	-13.2081	278.6603	31.8556	638.2014	-43.9932	245.8348	23.9563	533.4319	-0.0592	0.0182	-0.0073	-0.0462	0.0165	0.9585
31.1808	-15.7593	298.9683	14.2786	-109.6031	-21.2869	313.0629	32.3114	600.5863	-40.6614	231.4876	21.1648	501.0061	-0.0592	0.0182	-0.0073	-0.0462	0.0165	0.9585
31.1936	-19.8602	328.5057	20.0054	-120.1762	-28.584	342.7516	32.3678	557.0916	-37.0524	214.9227	18.3372	463.8459	-0.0592	0.0182	-0.0073	-0.0462	0.0165	0.9585
31.2064	-22.3944	356.0913	25.0957	-130.0831	-34.5436	369.7704	31.9654	508.7364	-33.4025	196.4966	15.662	422.8247	-0.0592	0.0182	-0.0073	-0.0462	0.0165	0.9585
31.2191	-23.4112	383.4539	29.3224	-139.9892	-38.977	395.8959	31.0502	456.7129	-29.841	176.6408	13.2504	378.9428	-0.0592	0.0182	-0.0073	-0.0462	0.0165	0.9585
31.2319	-23.0441	411.8363	32.6596	-150.3632	-41.9416	422.4136	29.4938	402.3883	-26.4021	155.8586	11.1614	333.368	-0.0592	0.0182	-0.0073	-0.0462	0.0165	0.9585
31.2447	-21.5438	442.0818	35.2851	-161.5106	-43.7478	450.2319	27.1858	347.2579	-23.1174	134.7123	9.4507	287.3485	-0.0592	0.0182	-0.0073	-0.0462	0.0165	0.9585
31.2575	-19.2498	474.7649	37.516	-173.6218	-44.8695	480.0022	24.0659	292.9949	-20.028	113.8326	8.1614	242.2755	-0.0592	0.0182	-0.0073	-0.0462	0.0165	0.9585
31.2703	-16.5333	510.1487	39.709	-186.7725	-45.8148	512.0683	20.213	241.3331	-17.1982	93.8839	7.3115	199.5414	-0.0592	0.0182	-0.0073	-0.0462	0.0165	0.9585
31.2831	-13.7752	548.0905	42.131	-200.8929	-46.9881	546.3483	15.8456	193.934	-14.6766	75.5128	6.8597	160.4647	-0.0592	0.0182	-0.0073	-0.0462	0.0165	0.9585
31.2959	-11.3421	587.9781	44.9671	-215.7397	-48.6953	582.2857	11.3267	152.1122	-12.4948	59.2415	6.7068	126.0559	-0.0592	0.0182	-0.0073	-0.0462	0.0165	0.9585
31.3086	-9.4723	628.7235	48.2261	-230.9074	-51.0165	618.8365	7.0399	116.5875	-10.6273	45.3714	6.7001	96.8406	-0.0592	0.0182	-0.0073	-0.0462	0.0165	0.9585
31.3214	-8.2275	668.9148	51.7654	-245.8772	-53.817	654.6354	3.2731	87.4145	-9.0202	33.9479	6.6973	72.8402	-0.0592	0.0182	-0.0073	-0.0462	0.0165	0.9585
31.3342	-7.5042	706.9401	55.3043	-260.0599	-56.7676	688.0945	0.20447	64.1022	-7.5883	24.8058	6.5736	53.6405	-0.0592	0.0182	-0.0073	-0.0462	0.0165	0.9585
31.347	-7.1426	741.0913	58.5795	-272.8296	-59.5375	717.5646	-2.1294	45.8716	-6.2635	17.6581	6.2655	38.6168	-0.0592	0.0182	-0.0073	-0.0462	0.0165	0.9585
31.3598	-6.9578	769.8364	61.361	-283.6217	-61.8309	741.5801	-3.6874	31.8307	-5.0037	12.1694	5.7304	27.0271	-0.0592	0.0182	-0.0073	-0.0462	0.0165	0.9585
31.3726	-6.7717	792.0695	63.5537	-292.0228	-63.4927	759.1201	-4.47	21.1661	-3.8118	8.0235	4.9731	18.2188	-0.0592	0.0182	-0.0073	-0.0462	0.0165	0.9585
31.3854	-6.4133	807.2204	65.1117	-297.8183	-64.4248	769.6919	-4.5045	13.2057	-2.7024	4.9551	4.0201	11.6322	-0.0592	0.0182	-0.0073	-0.0462	0.0165	0.9585
31.3981	-5.7262	815.3282	66.0884	-301.0131	-64.6334	773.396	-3.9256	7.4742	-1.7298	2.7684	2.9671	6.8739	-0.0592	0.0182	-0.0073	-0.0462	0.0165	0.9585
31.4109	-4.5701	816.9894	66.5238	-301.8174	-64.1243	770.8566	-3.0064	3.6447	-0.94754	1.3251	1.9591	3.6724	-0.0592	0.0182	-0.0073	-0.0462	0.0165	0.9585
31.4237	-2.8621	813.2075	66.4889	-300.5897	-62.9542	763.0918	-2.0371	1.3808	-0.38675	0.48642	1.1265	1.7602	-0.0592	0.0182	-0.0073	-0.0462	0.0165	0.9585
31.4365	-0.56737	805.2649	66.0486	-297.793	-61.191	751.3678	-1.1804	0.28597	-0.025272	0.095221	0.50771	0.81735	-0.0592	0.0182	-0.0073	-0.0462	0.0165	0.9585
31.4493	2.2734	794.5529	65.3292	-293.9338	-58.983	737.0606	-0.49352	-0.024743	0.16812	0.0021261	0.09695	0.53256	-0.0592	0.0182	-0.0073	-0.0462	0.0165	0.9585
31.4621	5.546	782.408	64.4667	-289.5017	-56.5098	721.4864	-0.0041481	0.13678	0.24645	0.085915	-0.14494	0.65973	-0.0592	0.0182	-0.0073	-0.0462	0.0165	0.9585
31.4749	9.0722	770.0413	63.6193	-284.9399	-53.9877	705.818	0.32151	0.52854	0.24564	0.25583	-0.26062	0.98099	-0.0592	0.0182	-0.0073	-0.0462	0.0165	0.9585
31.4876	12.6646	758.5147	62.8718	-280.6399	-51.5623	691.0742	0.49865	1.012	0.20557	0.45805	-0.2946	1.3912	-0.0592	0.0182	-0.0073	-0.0462	0.0165	0.9585
31.5004	16.154	748.6888	62.271	-276.9217	-49.3318	678.0713	0.5749	1.4847	0.14711	0.65478	-0.28121	1.7934	-0.0592	0.0182	-0.0073	-0.0462	0.0165	0.9585
31.5132	19.4144	741.1709	61.7886	-274.0148	-47.3079	667.3667	0.57255	1.9082	0.089401	0.82826	-0.24336	2.1663	-0.0592	0.0182	-0.0073	-0.0462	0.0165	0.9585
31.526	22.3607	736.2372	61.3935	-272.0281	-45.4845	659.1998	0.52636	2.2502	0.03715	0.96509	-0.1919	2.4715	-0.0592	0.0182	-0.0073	-0.0462	0.0165	0.9585
31.5388	24.9432	733.8269	61.0413	-270.9463	-43.8304	653.4986	0.44698	2.4753	-0.004158	1.0523	-0.13393	2.6713	-0.0592	0.0182	-0.0073	-0.0462	0.0165	0.9585
31.5516	27.1655	733.6195	60.713	-270.6561	-42.3223	649.9385	0.34711	2.5393	-0.03208	1.0727	-0.072848	2.7232	-0.0592	0.0182	-0.0073	-0.0462	0.0165	0.9585
31.5644	29.0644	735.1839	60.382	-271.0006	-40.9242	648.0974	0.24627	2.3751	-0.039792	1.0003	-0.021261	2.5504	-0.0592	0.0182	-0.0073	-0.0462	0.0165	0.9585
31.5771	30.7206	738.0544	60.0616	-271.8066	-39.6262	647.5293	0.14723	1.9122	-0.029542	0.80676	0.017796	2.078	-0.0592	0.0182	-0.0073	-0.0462	0.0165	0.9585
31.5899	32.2113	741.7967	59.7641	-272.9081	-38.4205	647.8342	0.068062	1.0646	-0.0031696	0.45823	0.035401	1.2041	-0.0592	0.0182	-0.0073	-0.0462	0.0165	0.9585
31.6027	33.5992	745.9968	59.5314	-274.1453	-37.3295	648.6441	0.0053887	-0.23542	0.041481	-0.075627	0.023682	-0.14961	-0.0592	0.0182	-0.0073	-0.0462	0.0165	0.9585
31.6155	34.9274	750.2462	59.4086	-275.3593	-36.3835	649.6131	-0.011795	-2.0373	0.10992	-0.81279	-0.036931	-2.0509	-0.0592	0.0182	-0.0073	-0.0462	0.0165	0.9585
31.6283	36.198	754.1122	59.4373	-276.3816	-35.6242	650.3927	0.031637	-4.2981	0.20746	-1.734	-0.16101	-4.4535	-0.0592	0.0182	-0.0073	-0.0462	0.0165	0.9585
31.6411	37.3914	757.1444	59.6386	-277.0409	-35.0773	650.6123	0.18873	-6.8226	0.33648	-2.756	-0.36957	-7.156	-0.0592	0.0182	-0.0073	-0.0462	0.0165	0.9585
31.6539	38.4632	758.9075	60.0098	-277.1727	-34.7507	649.9213	0.51802	-9.1788	0.49787	-3.7003	-0.68287	-9.6911	-0.0592	0.0182	-0.0073	-0.0462	0.0165	0.9585
31.6666	39.3693	758.9507	60.524	-276.6131	-34.633	647.9573	1.0803	-10.6018	0.68303	-4.2552	-1.1121	-11.2394	-0.0592	0.0182	-0.0073	-0.0462	0.0165	0.9585
31.6794	40.0597	756.8195	61.1493	-275.1995	-34.7126	644.3662	1.9363	-9.9059	0.86792	-3.9425	-1.6548	-10.5384	-0.0592	0.0182	-0.0073	-0.0462	0.0165	0.9585
31.6922	40.5083	752.08	61.8339	-272.7798	-34.9555	638.7942	3.1043	-5.439	1.0056	-2.099	-2.2662	-5.8209	-0.0592	0.0182	-0.0073	-0.0462	0.0165	0.9585
31.705	40.6963	744.3746	62.5038	-269.2326	-35.3092	630.9548	4.5491	4.8653	1.0112	2.1049	-2.8262	5.1212	-0.0592	0.0182	-0.0073	-0.0462	0.0165	0.9585
31.7178	40.6461	733.4125	63.0609	-264.4679	-35.6897	620.5951	6.1145	23.3474	0.76417	9.5985	-3.1266	24.8176	-0.0592	0.0182	-0.0073	-0.0462	0.0165	0.9585
31.7306	40.3917	718.9205	63.3861	-258.4116	-35.9905	607.4732	7.4938	52.187	0.10405	21.2427	-2.8576	55.6319	-0.0592	0.0182	-0.0073	-0.0462	0.0165	0.9585
31.7434	39.9576	700.5347	63.3274	-250.9634	-36.0771	591.2651	8.1155	92.7693	-1.1651	37.5706	-1.5765	99.0858	-0.0592	0.0182	-0.0073	-0.0462	0.0165	0.9585
31.7561	39.3745	677.7188	62.7017	-241.9694	-35.7868	571.4915	6.9823	144.7352	-3.2133	58.4099	1.2923	154.8225	-0.0592	0.0182	-0.0073	-0.0462	0.0165	0.9585
31.7689	38.6168	649.836	61.3058	-231.2504	-34.957	547.601	2.9209	204.8709	-6.1664	82.4436	6.3172	219.4127	-0.0592	0.0182	-0.0073	-0.0462	0.0165	0.9585
31.7817	37.6607	616.3711	58.9768	-218.6801	-33.4642	519.1217	-4.179	267.0365	-10.1167	107.1918	13.575	286.2348	-0.0592	0.0182	-0.0073	-0.0462	0.0165	0.9585
31.7945	36.461	577.2471	55.6631	-204.2795	-31.2843	485.9501	-13.1101	325.2089	-15.1086	130.2377	22.5661	348.6696	-0.0592	0.0182	-0.0073	-0.0462	0.0165	0.9585
